<svg fill="none" height="318" viewBox="0 0 319 318" width="319" xmlns="http://www.w3.org/2000/svg" xmlns:xlink="http://www.w3.org/1999/xlink"><filter id="a" color-interpolation-filters="sRGB" filterUnits="userSpaceOnUse" height="207.332" width="299.205" x="10.2258" y="68.283"><feFlood flood-opacity="0" result="BackgroundImageFix"/><feGaussianBlur in="BackgroundImage" stdDeviation="15.5189"/><feComposite in2="SourceAlpha" operator="in" result="effect1_backgroundBlur_40_602"/><feBlend in="SourceGraphic" in2="effect1_backgroundBlur_40_602" mode="normal" result="shape"/></filter><filter id="b" color-interpolation-filters="sRGB" filterUnits="userSpaceOnUse" height="207.332" width="299.205" x="10.2258" y="68.283"><feFlood flood-opacity="0" result="BackgroundImageFix"/><feGaussianBlur in="BackgroundImage" stdDeviation="15.5189"/><feComposite in2="SourceAlpha" operator="in" result="effect1_backgroundBlur_40_602"/><feBlend in="SourceGraphic" in2="effect1_backgroundBlur_40_602" mode="normal" result="shape"/></filter><linearGradient id="c" gradientUnits="userSpaceOnUse" x1="246.143" x2="200.643" y1="78.249" y2="181.249"><stop offset="0" stop-color="#ffd88b"/><stop offset="1" stop-color="#ffa900"/></linearGradient><linearGradient id="d" gradientUnits="userSpaceOnUse" x1="78.8194" x2="247.044" y1="124.772" y2="244.578"><stop offset=".416176" stop-color="#fff" stop-opacity=".7"/><stop offset="1" stop-color="#fff" stop-opacity="0"/></linearGradient><linearGradient id="e" gradientUnits="userSpaceOnUse" x1="23.1051" x2="108.008" y1="137.598" y2="198.665"><stop offset="0" stop-color="#fff"/><stop offset="1" stop-color="#fff" stop-opacity="0"/></linearGradient><path d="m278.393 127.255c0 29.826-24.179 54.006-54.005 54.006-29.827 0-54.006-24.18-54.006-54.006 0-29.8267 24.179-54.006 54.006-54.006 29.826 0 54.005 24.1793 54.005 54.006z" fill="url(#c)"/><path d="m278.393 204.792c0 21.973-17.846 39.786-39.867 39.786h-144.2557c-29.2727 0-53.0066-23.683-53.0066-52.908 0-29.217 23.7339-52.907 53.0066-52.907 2.6253 0 5.2058.201 7.7357.567 11.971-23.727 36.589-40.0092 65.028-40.0092 34.411 0 63.239 23.8472 70.812 55.8862.756 3.198 1.302 6.475 1.615 9.814v.008c21.579.492 38.932 18.104 38.932 39.763z" fill="#bac7cb" fill-opacity=".4"/><g filter="url(#a)"><path d="m278.393 204.792c0 21.973-17.846 39.786-39.867 39.786h-144.2557c-29.2727 0-53.0066-23.683-53.0066-52.908 0-29.217 23.7339-52.907 53.0066-52.907 2.6253 0 5.2058.201 7.7357.567 11.971-23.727 36.589-40.0092 65.028-40.0092 34.411 0 63.239 23.8472 70.812 55.8862.756 3.198 1.302 6.475 1.615 9.814v.008c21.579.492 38.932 18.104 38.932 39.763z" fill="url(#d)"/></g><g filter="url(#b)"><path clip-rule="evenodd" d="m102.712 140.686-.884-.128c-2.475-.358-4.996-.554-7.5577-.554-28.5892 0-51.7651 23.137-51.7651 51.666 0 28.537 23.1757 51.666 51.7651 51.666h144.2557c21.338 0 38.625-17.259 38.625-38.544 0-20.981-16.81-38.045-37.718-38.522l-1.213-.027v-1.164c-.309-3.26-.843-6.461-1.582-9.587-7.444-31.49-35.78-54.93-69.604-54.93-27.953 0-52.152 16.003-63.919 39.327zm136.749 24.335v.008c21.579.492 38.932 18.104 38.932 39.763 0 21.973-17.846 39.786-39.867 39.786h-144.2557c-29.2727 0-53.0066-23.683-53.0066-52.908 0-29.217 23.7339-52.907 53.0066-52.907 2.6253 0 5.2058.201 7.7357.567 11.971-23.727 36.589-40.0092 65.028-40.0092 34.411 0 63.239 23.8472 70.812 55.8862.756 3.198 1.302 6.475 1.615 9.814z" fill="url(#e)" fill-rule="evenodd"/></g></svg>