<svg fill="none" height="319" viewBox="0 0 318 319" width="318" xmlns="http://www.w3.org/2000/svg" xmlns:xlink="http://www.w3.org/1999/xlink"><filter id="a" color-interpolation-filters="sRGB" filterUnits="userSpaceOnUse" height="207.332" width="299.205" x="9.31178" y="32.3128"><feFlood flood-opacity="0" result="BackgroundImageFix"/><feGaussianBlur in="BackgroundImage" stdDeviation="15.5189"/><feComposite in2="SourceAlpha" operator="in" result="effect1_backgroundBlur_40_578"/><feBlend in="SourceGraphic" in2="effect1_backgroundBlur_40_578" mode="normal" result="shape"/></filter><filter id="b" color-interpolation-filters="sRGB" filterUnits="userSpaceOnUse" height="207.332" width="299.205" x="9.31178" y="32.3128"><feFlood flood-opacity="0" result="BackgroundImageFix"/><feGaussianBlur in="BackgroundImage" stdDeviation="15.5189"/><feComposite in2="SourceAlpha" operator="in" result="effect1_backgroundBlur_40_578"/><feBlend in="SourceGraphic" in2="effect1_backgroundBlur_40_578" mode="normal" result="shape"/></filter><linearGradient id="c" gradientUnits="userSpaceOnUse" x1="245.228" x2="199.728" y1="42.2793" y2="145.279"><stop offset="0" stop-color="#ffd88b"/><stop offset="1" stop-color="#ffa900"/></linearGradient><linearGradient id="d" gradientUnits="userSpaceOnUse" x1="77.9054" x2="246.13" y1="88.8016" y2="208.608"><stop offset=".416176" stop-color="#fff" stop-opacity=".7"/><stop offset="1" stop-color="#fff" stop-opacity="0"/></linearGradient><linearGradient id="e" gradientUnits="userSpaceOnUse" x1="22.1911" x2="107.094" y1="101.628" y2="162.695"><stop offset="0" stop-color="#fff"/><stop offset="1" stop-color="#fff" stop-opacity="0"/></linearGradient><path d="m277.478 91.2851c0 29.8269-24.179 54.0059-54.005 54.0059-29.827 0-54.006-24.179-54.006-54.0059 0-29.8266 24.179-54.0058 54.006-54.0058 29.826 0 54.005 24.1792 54.005 54.0058z" fill="url(#c)"/><path d="m277.479 168.822c0 21.973-17.846 39.786-39.867 39.786h-144.2558c-29.2727 0-53.0066-23.683-53.0066-52.908 0-29.217 23.7339-52.908 53.0066-52.908 2.6253 0 5.2058.202 7.7358.568 11.971-23.7276 36.589-40.0094 65.028-40.0094 34.411 0 63.239 23.8472 70.812 55.8854.756 3.199 1.302 6.476 1.615 9.815v.008c21.579.492 38.932 18.103 38.932 39.763z" fill="#bac7cb" fill-opacity=".4"/><g filter="url(#a)"><path d="m277.479 168.822c0 21.973-17.846 39.786-39.867 39.786h-144.2558c-29.2727 0-53.0066-23.683-53.0066-52.908 0-29.217 23.7339-52.908 53.0066-52.908 2.6253 0 5.2058.202 7.7358.568 11.971-23.7276 36.589-40.0094 65.028-40.0094 34.411 0 63.239 23.8472 70.812 55.8854.756 3.199 1.302 6.476 1.615 9.815v.008c21.579.492 38.932 18.103 38.932 39.763z" fill="url(#d)"/></g><g filter="url(#b)"><path clip-rule="evenodd" d="m101.798 104.716-.884-.128c-2.475-.358-4.9961-.554-7.5578-.554-28.5892 0-51.7651 23.137-51.7651 51.666 0 28.537 23.1758 51.666 51.7651 51.666h144.2558c21.338 0 38.625-17.259 38.625-38.544 0-20.981-16.81-38.045-37.718-38.522l-1.213-.027v-1.164c-.309-3.26-.844-6.461-1.582-9.587-7.444-31.4898-35.78-54.9299-69.604-54.9299-27.953 0-52.152 16.0023-63.919 39.3269zm136.749 24.335v.008c21.579.492 38.932 18.103 38.932 39.763 0 21.973-17.846 39.786-39.867 39.786h-144.2558c-29.2727 0-53.0066-23.683-53.0066-52.908 0-29.217 23.7339-52.908 53.0066-52.908 2.6253 0 5.2058.202 7.7358.568 11.971-23.7276 36.589-40.0094 65.028-40.0094 34.411 0 63.239 23.8472 70.812 55.8854.756 3.199 1.302 6.476 1.615 9.815z" fill="url(#e)" fill-rule="evenodd"/></g><g fill="#00a3ff"><path d="m159.14 219.16c-7.926 4.589-13.262 13.153-13.262 22.969 0 .351.005.7.019 1.046.649 16.674 25.837 16.674 26.486 0 .014-.346.019-.695.019-1.046.003-9.816-5.336-18.38-13.262-22.969z"/><path d="m108.24 182.536c-7.926 4.589-13.2644 13.153-13.2644 22.969 0 .351.0072.7.0218 1.048.6461 16.672 25.8366 16.672 26.4856 0 .012-.348.019-.697.019-1.048 0-9.816-5.336-18.38-13.262-22.969z"/><path d="m217.063 194.33c-7.926 4.589-13.262 13.153-13.262 22.969 0 .351.007.7.019 1.048.649 16.672 25.837 16.672 26.486 0 .014-.348.019-.697.019-1.048.002-9.816-5.334-18.38-13.262-22.969z"/></g></svg>