<svg fill="none" height="319" viewBox="0 0 319 319" width="319" xmlns="http://www.w3.org/2000/svg" xmlns:xlink="http://www.w3.org/1999/xlink"><filter id="a" color-interpolation-filters="sRGB" filterUnits="userSpaceOnUse" height="330.058" width="322.788" x="-8.99656" y="-15.9214"><feFlood flood-opacity="0" result="BackgroundImageFix"/><feGaussianBlur in="BackgroundImage" stdDeviation="31.0378"/><feComposite in2="SourceAlpha" operator="in" result="effect1_backgroundBlur_40_549"/><feBlend in="SourceGraphic" in2="effect1_backgroundBlur_40_549" mode="normal" result="shape"/></filter><filter id="b" color-interpolation-filters="sRGB" filterUnits="userSpaceOnUse" height="330.058" width="322.788" x="-8.99656" y="-15.9214"><feFlood flood-opacity="0" result="BackgroundImageFix"/><feGaussianBlur in="BackgroundImage" stdDeviation="31.0378"/><feComposite in2="SourceAlpha" operator="in" result="effect1_backgroundBlur_40_549"/><feBlend in="SourceGraphic" in2="effect1_backgroundBlur_40_549" mode="normal" result="shape"/></filter><linearGradient id="c"><stop offset="0" stop-color="#fff"/><stop offset="1" stop-color="#fff" stop-opacity="0"/></linearGradient><linearGradient id="d" gradientUnits="userSpaceOnUse" x1="86.8989" x2="278.718" xlink:href="#c" y1="75.9355" y2="159.618"/><linearGradient id="e" gradientUnits="userSpaceOnUse" x1="36.7269" x2="133.878" xlink:href="#c" y1="94.7911" y2="137.595"/><path clip-rule="evenodd" d="m251.716 199.732c-12.279 4.925-25.684 7.634-39.723 7.634-58.968 0-106.77-47.803-106.77-106.77 0-19.8852 5.436-38.5008 14.903-54.4417-39.2961 15.7601-67.0469 54.2077-67.0469 99.1357 0 58.968 47.8029 106.771 106.7699 106.771 39.083 0 73.26-20.999 91.867-52.329z" fill="#bac7cb" fill-rule="evenodd"/><g filter="url(#a)"><path clip-rule="evenodd" d="m251.716 199.732c-12.279 4.925-25.684 7.634-39.723 7.634-58.968 0-106.77-47.803-106.77-106.77 0-19.8852 5.436-38.5008 14.903-54.4417-39.2961 15.7601-67.0469 54.2077-67.0469 99.1357 0 58.968 47.8029 106.771 106.7699 106.771 39.083 0 73.26-20.999 91.867-52.329z" fill="url(#d)" fill-rule="evenodd"/></g><g filter="url(#b)"><path clip-rule="evenodd" d="m248.735 202.197c-11.471 4.149-23.844 6.411-36.742 6.411-59.653 0-108.012-48.359-108.012-108.012 0-18.798 4.803-36.4774 13.25-51.8747-37.0554 16.3775-62.9104 53.4557-62.9104 96.5687 0 58.282 47.2464 105.529 105.5284 105.529 37.323 0 70.123-19.375 88.886-48.622zm1.083-1.725c-11.757 4.455-24.506 6.894-37.825 6.894-58.968 0-106.77-47.802-106.77-106.77 0-19.1573 5.045-37.1362 13.88-52.6804.335-.5906.676-1.1777 1.023-1.7613-.634.2543-1.265.5145-1.893.7805-38.2914 16.222-65.1539 54.1522-65.1539 98.3552 0 58.968 47.8029 106.771 106.7699 106.771 38.35 0 71.978-20.219 90.805-50.579.359-.579.713-1.163 1.062-1.75-.63.253-1.262.499-1.898.74z" fill="url(#e)" fill-rule="evenodd"/></g></svg>