<svg fill="none" height="319" viewBox="0 0 319 319" width="319" xmlns="http://www.w3.org/2000/svg" xmlns:xlink="http://www.w3.org/1999/xlink"><filter id="a" color-interpolation-filters="sRGB" filterUnits="userSpaceOnUse" height="246.412" width="242.095" x="110.788" y="-33.4868"><feFlood flood-opacity="0" result="BackgroundImageFix"/><feGaussianBlur in="BackgroundImage" stdDeviation="31.0378"/><feComposite in2="SourceAlpha" operator="in" result="effect1_backgroundBlur_40_538"/><feBlend in="SourceGraphic" in2="effect1_backgroundBlur_40_538" mode="normal" result="shape"/></filter><filter id="b" color-interpolation-filters="sRGB" filterUnits="userSpaceOnUse" height="246.412" width="242.095" x="110.788" y="-33.4868"><feFlood flood-opacity="0" result="BackgroundImageFix"/><feGaussianBlur in="BackgroundImage" stdDeviation="31.0378"/><feComposite in2="SourceAlpha" operator="in" result="effect1_backgroundBlur_40_538"/><feBlend in="SourceGraphic" in2="effect1_backgroundBlur_40_538" mode="normal" result="shape"/></filter><filter id="c" color-interpolation-filters="sRGB" filterUnits="userSpaceOnUse" height="207.332" width="299.205" x="10.2249" y="68.9378"><feFlood flood-opacity="0" result="BackgroundImageFix"/><feGaussianBlur in="BackgroundImage" stdDeviation="15.5189"/><feComposite in2="SourceAlpha" operator="in" result="effect1_backgroundBlur_40_538"/><feBlend in="SourceGraphic" in2="effect1_backgroundBlur_40_538" mode="normal" result="shape"/></filter><filter id="d" color-interpolation-filters="sRGB" filterUnits="userSpaceOnUse" height="207.332" width="299.205" x="10.2249" y="68.9378"><feFlood flood-opacity="0" result="BackgroundImageFix"/><feGaussianBlur in="BackgroundImage" stdDeviation="15.5189"/><feComposite in2="SourceAlpha" operator="in" result="effect1_backgroundBlur_40_538"/><feBlend in="SourceGraphic" in2="effect1_backgroundBlur_40_538" mode="normal" result="shape"/></filter><linearGradient id="e"><stop offset="0" stop-color="#fff"/><stop offset="1" stop-color="#fff" stop-opacity="0"/></linearGradient><linearGradient id="f" gradientUnits="userSpaceOnUse" x1="192.944" x2="306.84" xlink:href="#e" y1="46.272" y2="95.9593"/><linearGradient id="g" gradientUnits="userSpaceOnUse" x1="163.154" x2="220.839" xlink:href="#e" y1="57.4678" y2="82.8833"/><linearGradient id="h" gradientUnits="userSpaceOnUse" x1="78.8185" x2="247.043" y1="125.427" y2="245.233"><stop offset=".416176" stop-color="#fff" stop-opacity=".7"/><stop offset="1" stop-color="#fff" stop-opacity="0"/></linearGradient><linearGradient id="i" gradientUnits="userSpaceOnUse" x1="23.1042" x2="108.007" xlink:href="#e" y1="138.253" y2="199.32"/><path d="m278.392 205.447c0 21.973-17.846 39.786-39.867 39.786h-144.2557c-29.2727 0-53.0066-23.683-53.0066-52.908 0-29.217 23.7339-52.908 53.0066-52.908 2.6253 0 5.2058.202 7.7357.568 11.971-23.728 36.589-40.0094 65.028-40.0094 34.411 0 63.239 23.8474 70.812 55.8854.756 3.199 1.302 6.476 1.615 9.815v.008c21.579.492 38.932 18.103 38.932 39.763z" fill="#bac7cb" fill-opacity=".4"/><path clip-rule="evenodd" d="m290.807 119.779c-7.291 2.924-15.251 4.533-23.586 4.533-35.013 0-63.397-28.384-63.397-63.3969 0-11.8074 3.228-22.8609 8.85-32.3262-23.333 9.3577-39.811 32.1865-39.811 58.8639 0 35.0132 28.384 63.3962 63.397 63.3962 23.205 0 43.499-12.468 54.547-31.07z" fill="#bac7cb" fill-rule="evenodd"/><g filter="url(#a)"><path clip-rule="evenodd" d="m290.807 119.779c-7.291 2.924-15.251 4.533-23.586 4.533-35.013 0-63.397-28.384-63.397-63.3969 0-11.8074 3.228-22.8609 8.85-32.3262-23.333 9.3577-39.811 32.1865-39.811 58.8639 0 35.0132 28.384 63.3962 63.397 63.3962 23.205 0 43.499-12.468 54.547-31.07z" fill="url(#f)" fill-rule="evenodd"/></g><g filter="url(#b)"><path clip-rule="evenodd" d="m287.797 122.209c-6.465 2.169-13.384 3.344-20.576 3.344-35.699 0-64.638-28.9393-64.638-64.6379 0-10.7154 2.608-20.8246 7.225-29.7244-21.101 9.9382-35.703 31.3962-35.703 56.2621 0 34.3272 27.828 62.1552 62.155 62.1552 21.451 0 40.365-10.866 51.537-27.399zm1.111-1.704c-6.766 2.463-14.07 3.807-21.687 3.807-35.013 0-63.397-28.384-63.397-63.3969 0-11.0809 2.843-21.4979 7.84-30.5612.327-.5943.664-1.1826 1.01-1.765-.636.2549-1.266.5198-1.891.7945-22.328 9.8098-37.92 32.1187-37.92 58.0694 0 35.0132 28.384 63.3962 63.397 63.3962 22.471 0 42.212-11.692 53.471-29.324.368-.576.726-1.158 1.076-1.746-.628.252-1.261.494-1.899.726z" fill="url(#g)" fill-rule="evenodd"/></g><g filter="url(#c)"><path d="m278.392 205.447c0 21.973-17.846 39.786-39.867 39.786h-144.2557c-29.2727 0-53.0066-23.683-53.0066-52.908 0-29.217 23.7339-52.908 53.0066-52.908 2.6253 0 5.2058.202 7.7357.568 11.971-23.728 36.589-40.0094 65.028-40.0094 34.411 0 63.239 23.8474 70.812 55.8854.756 3.199 1.302 6.476 1.615 9.815v.008c21.579.492 38.932 18.103 38.932 39.763z" fill="url(#h)"/></g><g filter="url(#d)"><path clip-rule="evenodd" d="m102.711 141.341-.884-.128c-2.475-.358-4.996-.554-7.5577-.554-28.5892 0-51.7651 23.137-51.7651 51.666 0 28.537 23.1758 51.666 51.7651 51.666h144.2557c21.338 0 38.625-17.259 38.625-38.544 0-20.981-16.81-38.045-37.718-38.522l-1.213-.027v-1.164c-.309-3.26-.843-6.461-1.582-9.587-7.444-31.49-35.78-54.93-69.604-54.93-27.953 0-52.152 16.002-63.919 39.327zm136.749 24.335v.008c21.579.492 38.932 18.103 38.932 39.763 0 21.973-17.846 39.786-39.867 39.786h-144.2557c-29.2727 0-53.0066-23.683-53.0066-52.908 0-29.217 23.7339-52.908 53.0066-52.908 2.6253 0 5.2058.202 7.7357.568 11.971-23.728 36.589-40.0094 65.028-40.0094 34.411 0 63.239 23.8474 70.812 55.8854.756 3.199 1.302 6.476 1.615 9.815z" fill="url(#i)" fill-rule="evenodd"/></g></svg>