<svg fill="none" height="318" viewBox="0 0 319 318" width="319" xmlns="http://www.w3.org/2000/svg" xmlns:xlink="http://www.w3.org/1999/xlink"><filter id="a" color-interpolation-filters="sRGB" filterUnits="userSpaceOnUse" height="207.332" width="299.205" x="10.2053" y="31.6585"><feFlood flood-opacity="0" result="BackgroundImageFix"/><feGaussianBlur in="BackgroundImage" stdDeviation="15.5189"/><feComposite in2="SourceAlpha" operator="in" result="effect1_backgroundBlur_40_589"/><feBlend in="SourceGraphic" in2="effect1_backgroundBlur_40_589" mode="normal" result="shape"/></filter><filter id="b" color-interpolation-filters="sRGB" filterUnits="userSpaceOnUse" height="207.332" width="299.205" x="10.2053" y="31.6585"><feFlood flood-opacity="0" result="BackgroundImageFix"/><feGaussianBlur in="BackgroundImage" stdDeviation="15.5189"/><feComposite in2="SourceAlpha" operator="in" result="effect1_backgroundBlur_40_589"/><feBlend in="SourceGraphic" in2="effect1_backgroundBlur_40_589" mode="normal" result="shape"/></filter><filter id="c" color-interpolation-filters="sRGB" filterUnits="userSpaceOnUse" height="144.016" width="158.293" x="56.762" y="94.3548"><feFlood flood-opacity="0" result="BackgroundImageFix"/><feBlend in="SourceGraphic" in2="BackgroundImageFix" mode="normal" result="shape"/><feGaussianBlur result="effect1_foregroundBlur_40_589" stdDeviation="7.44908"/></filter><filter id="d" color-interpolation-filters="sRGB" filterUnits="userSpaceOnUse" height="168.846" width="236.375" x="10.2053" y="95.5964"><feFlood flood-opacity="0" result="BackgroundImageFix"/><feGaussianBlur in="BackgroundImage" stdDeviation="15.5189"/><feComposite in2="SourceAlpha" operator="in" result="effect1_backgroundBlur_40_589"/><feBlend in="SourceGraphic" in2="effect1_backgroundBlur_40_589" mode="normal" result="shape"/></filter><filter id="e" color-interpolation-filters="sRGB" filterUnits="userSpaceOnUse" height="168.846" width="236.375" x="10.2053" y="95.5964"><feFlood flood-opacity="0" result="BackgroundImageFix"/><feGaussianBlur in="BackgroundImage" stdDeviation="15.5189"/><feComposite in2="SourceAlpha" operator="in" result="effect1_backgroundBlur_40_589"/><feBlend in="SourceGraphic" in2="effect1_backgroundBlur_40_589" mode="normal" result="shape"/></filter><linearGradient id="f"><stop offset=".416176" stop-color="#fff" stop-opacity=".7"/><stop offset="1" stop-color="#fff" stop-opacity="0"/></linearGradient><linearGradient id="g" gradientUnits="userSpaceOnUse" x1="78.7989" x2="247.024" xlink:href="#f" y1="88.1473" y2="207.953"/><linearGradient id="h"><stop offset="0" stop-color="#fff"/><stop offset="1" stop-color="#fff" stop-opacity="0"/></linearGradient><linearGradient id="i" gradientUnits="userSpaceOnUse" x1="23.0846" x2="107.987" xlink:href="#h" y1="100.973" y2="162.04"/><linearGradient id="j" gradientUnits="userSpaceOnUse" x1="68.8483" x2="192.501" xlink:href="#f" y1="145.342" y2="233.404"/><linearGradient id="k" gradientUnits="userSpaceOnUse" x1="27.8959" x2="90.3029" xlink:href="#h" y1="154.77" y2="199.657"/><path d="m278.372 168.168c0 21.973-17.845 39.785-39.866 39.785h-144.2562c-29.2727 0-53.0066-23.682-53.0066-52.907 0-29.217 23.7339-52.908 53.0066-52.908 2.6253 0 5.2058.201 7.7362.567 11.97-23.7269 36.589-40.0087 65.027-40.0087 34.412 0 63.239 23.8472 70.813 55.8857.756 3.199 1.301 6.476 1.615 9.814v.009c21.579.491 38.931 18.103 38.931 39.763z" fill="#bac7cb" fill-opacity=".4"/><g filter="url(#a)"><path d="m278.372 168.168c0 21.973-17.845 39.785-39.866 39.785h-144.2562c-29.2727 0-53.0066-23.682-53.0066-52.907 0-29.217 23.7339-52.908 53.0066-52.908 2.6253 0 5.2058.201 7.7362.567 11.97-23.7269 36.589-40.0087 65.027-40.0087 34.412 0 63.239 23.8472 70.813 55.8857.756 3.199 1.301 6.476 1.615 9.814v.009c21.579.491 38.931 18.103 38.931 39.763z" fill="url(#g)"/></g><g filter="url(#b)"><path clip-rule="evenodd" d="m102.692 104.062-.884-.128c-2.4755-.358-4.9965-.554-7.5582-.554-28.5892 0-51.7651 23.137-51.7651 51.666 0 28.537 23.1757 51.666 51.7651 51.666h144.2562c21.338 0 38.625-17.259 38.625-38.544 0-20.981-16.81-38.046-37.719-38.522l-1.213-.028v-1.163c-.309-3.26-.843-6.462-1.581-9.587-7.444-31.4901-35.781-54.9302-69.605-54.9302-27.953 0-52.152 16.0024-63.919 39.3262zm136.749 24.334v.009c21.579.491 38.931 18.103 38.931 39.763 0 21.973-17.845 39.785-39.866 39.785h-144.2562c-29.2727 0-53.0066-23.682-53.0066-52.907 0-29.217 23.7339-52.908 53.0066-52.908 2.6253 0 5.2058.201 7.7362.567 11.97-23.7269 36.589-40.0087 65.027-40.0087 34.412 0 63.239 23.8472 70.813 55.8857.755 3.199 1.301 6.476 1.615 9.814z" fill="url(#i)" fill-rule="evenodd"/></g><g filter="url(#c)"><path d="m200.157 166.363c0 31.54-28.765 57.109-64.249 57.109-35.483 0-64.2478-25.569-64.2478-57.109 0-31.541 28.7648-57.11 64.2478-57.11 35.484 0 64.249 25.569 64.249 57.11z" fill="#bac7cb" fill-opacity=".2"/></g><path d="m215.543 204.16c0 16.151-13.117 29.244-29.303 29.244h-106.0347c-21.5167 0-38.9621-17.407-38.9621-38.889 0-21.476 17.4454-38.889 38.9621-38.889 1.9297 0 3.8265.148 5.6862.417 8.7988-17.441 26.8945-29.409 47.7985-29.409 25.293 0 46.483 17.529 52.05 41.079.555 2.351.956 4.76 1.187 7.214v.006c15.861.361 28.616 13.307 28.616 29.227z" fill="#bac7cb"/><g filter="url(#d)"><path d="m215.543 204.16c0 16.151-13.117 29.244-29.303 29.244h-106.0347c-21.5167 0-38.9621-17.407-38.9621-38.889 0-21.476 17.4454-38.889 38.9621-38.889 1.9297 0 3.8265.148 5.6862.417 8.7988-17.441 26.8945-29.409 47.7985-29.409 25.293 0 46.483 17.529 52.05 41.079.555 2.351.956 4.76 1.187 7.214v.006c15.861.361 28.616 13.307 28.616 29.227z" fill="url(#j)"/></g><g filter="url(#e)"><path clip-rule="evenodd" d="m86.5977 157.399-.8839-.128c-1.8051-.261-3.6424-.404-5.5085-.404-20.8332 0-37.7206 16.86-37.7206 37.648 0 20.794 16.8873 37.648 37.7206 37.648h106.0347c15.503 0 28.062-12.54 28.062-28.003 0-15.242-12.212-27.64-27.403-27.986l-1.214-.028v-1.161c-.225-2.376-.615-4.708-1.153-6.987-5.438-23.001-26.136-40.122-50.842-40.122-20.418 0-38.0944 11.688-46.69 28.726zm100.3293 17.528v.006c15.861.361 28.616 13.307 28.616 29.227 0 16.151-13.117 29.244-29.303 29.244h-106.0347c-21.5167 0-38.9621-17.407-38.9621-38.889 0-21.476 17.4454-38.889 38.9621-38.889 1.9297 0 3.8265.148 5.6862.417 8.7988-17.441 26.8945-29.409 47.7985-29.409 25.293 0 46.483 17.529 52.05 41.079.555 2.351.956 4.76 1.187 7.214z" fill="url(#k)" fill-rule="evenodd"/></g></svg>