<svg fill="none" height="319" viewBox="0 0 318 319" width="318" xmlns="http://www.w3.org/2000/svg" xmlns:xlink="http://www.w3.org/1999/xlink"><filter id="a" color-interpolation-filters="sRGB" filterUnits="userSpaceOnUse" height="207.332" width="299.205" x="9.31178" y="32.4856"><feFlood flood-opacity="0" result="BackgroundImageFix"/><feGaussianBlur in="BackgroundImage" stdDeviation="15.5189"/><feComposite in2="SourceAlpha" operator="in" result="effect1_backgroundBlur_40_721"/><feBlend in="SourceGraphic" in2="effect1_backgroundBlur_40_721" mode="normal" result="shape"/></filter><filter id="b" color-interpolation-filters="sRGB" filterUnits="userSpaceOnUse" height="207.332" width="299.205" x="9.31178" y="32.4856"><feFlood flood-opacity="0" result="BackgroundImageFix"/><feGaussianBlur in="BackgroundImage" stdDeviation="15.5189"/><feComposite in2="SourceAlpha" operator="in" result="effect1_backgroundBlur_40_721"/><feBlend in="SourceGraphic" in2="effect1_backgroundBlur_40_721" mode="normal" result="shape"/></filter><linearGradient id="c" gradientUnits="userSpaceOnUse" x1="77.9054" x2="246.13" y1="88.9745" y2="208.78"><stop offset=".416176" stop-color="#fff" stop-opacity=".7"/><stop offset="1" stop-color="#fff" stop-opacity="0"/></linearGradient><linearGradient id="d" gradientUnits="userSpaceOnUse" x1="22.1911" x2="107.094" y1="101.801" y2="162.868"><stop offset="0" stop-color="#fff"/><stop offset="1" stop-color="#fff" stop-opacity="0"/></linearGradient><radialGradient id="e" cx="0" cy="0" gradientTransform="matrix(0 72.6666 -50.9618 0 162.324 201.395)" gradientUnits="userSpaceOnUse" r="1"><stop offset="0" stop-color="#ffd88b"/><stop offset="1" stop-color="#ffa900"/></radialGradient><path d="m277.479 168.995c0 21.973-17.846 39.785-39.867 39.785h-144.2558c-29.2727 0-53.0066-23.682-53.0066-52.907 0-29.217 23.7339-52.908 53.0066-52.908 2.6253 0 5.2058.201 7.7358.567 11.971-23.7267 36.589-40.0086 65.028-40.0086 34.411 0 63.239 23.8473 70.812 55.8856.756 3.199 1.302 6.476 1.615 9.815v.008c21.579.492 38.932 18.103 38.932 39.763z" fill="#bac7cb" fill-opacity=".4"/><g filter="url(#a)"><path d="m277.479 168.995c0 21.973-17.846 39.785-39.867 39.785h-144.2558c-29.2727 0-53.0066-23.682-53.0066-52.907 0-29.217 23.7339-52.908 53.0066-52.908 2.6253 0 5.2058.201 7.7358.567 11.971-23.7267 36.589-40.0086 65.028-40.0086 34.411 0 63.239 23.8473 70.812 55.8856.756 3.199 1.302 6.476 1.615 9.815v.008c21.579.492 38.932 18.103 38.932 39.763z" fill="url(#c)"/></g><g filter="url(#b)"><path clip-rule="evenodd" d="m101.798 104.889-.884-.128c-2.475-.358-4.9961-.554-7.5578-.554-28.5892 0-51.7651 23.137-51.7651 51.666 0 28.537 23.1758 51.666 51.7651 51.666h144.2558c21.338 0 38.625-17.259 38.625-38.544 0-20.981-16.81-38.045-37.718-38.522l-1.213-.028v-1.163c-.309-3.26-.844-6.461-1.582-9.587-7.444-31.4899-35.78-54.93-69.604-54.93-27.953 0-52.152 16.0023-63.919 39.327zm136.749 24.335v.008c21.579.492 38.932 18.103 38.932 39.763 0 21.973-17.846 39.785-39.867 39.785h-144.2558c-29.2727 0-53.0066-23.682-53.0066-52.907 0-29.217 23.7339-52.908 53.0066-52.908 2.6253 0 5.2058.201 7.7358.567 11.971-23.7267 36.589-40.0086 65.028-40.0086 34.411 0 63.239 23.8473 70.812 55.8856.756 3.199 1.302 6.476 1.615 9.815z" fill="url(#d)" fill-rule="evenodd"/></g><path d="m198.938 149.188-54.409 43.794h13.529l-24.098 27.908h14.188l-22.437 32.712 53.782-37.422h-14.848l23.757-26.692h-16.982z" fill="url(#e)"/></svg>