<svg fill="none" height="319" viewBox="0 0 319 319" width="319" xmlns="http://www.w3.org/2000/svg" xmlns:xlink="http://www.w3.org/1999/xlink"><filter id="a" color-interpolation-filters="sRGB" filterUnits="userSpaceOnUse" height="207.332" width="299.205" x="10.2053" y="1.44752"><feFlood flood-opacity="0" result="BackgroundImageFix"/><feGaussianBlur in="BackgroundImage" stdDeviation="15.5189"/><feComposite in2="SourceAlpha" operator="in" result="effect1_backgroundBlur_40_647"/><feBlend in="SourceGraphic" in2="effect1_backgroundBlur_40_647" mode="normal" result="shape"/></filter><filter id="b" color-interpolation-filters="sRGB" filterUnits="userSpaceOnUse" height="207.332" width="299.205" x="10.2053" y="1.44752"><feFlood flood-opacity="0" result="BackgroundImageFix"/><feGaussianBlur in="BackgroundImage" stdDeviation="15.5189"/><feComposite in2="SourceAlpha" operator="in" result="effect1_backgroundBlur_40_647"/><feBlend in="SourceGraphic" in2="effect1_backgroundBlur_40_647" mode="normal" result="shape"/></filter><filter id="c" color-interpolation-filters="sRGB" filterUnits="userSpaceOnUse" height="144.015" width="158.293" x="56.762" y="95.1819"><feFlood flood-opacity="0" result="BackgroundImageFix"/><feBlend in="SourceGraphic" in2="BackgroundImageFix" mode="normal" result="shape"/><feGaussianBlur result="effect1_foregroundBlur_40_647" stdDeviation="7.44908"/></filter><filter id="d" color-interpolation-filters="sRGB" filterUnits="userSpaceOnUse" height="168.846" width="236.375" x="10.2053" y="65.386"><feFlood flood-opacity="0" result="BackgroundImageFix"/><feGaussianBlur in="BackgroundImage" stdDeviation="15.5189"/><feComposite in2="SourceAlpha" operator="in" result="effect1_backgroundBlur_40_647"/><feBlend in="SourceGraphic" in2="effect1_backgroundBlur_40_647" mode="normal" result="shape"/></filter><filter id="e" color-interpolation-filters="sRGB" filterUnits="userSpaceOnUse" height="168.846" width="236.375" x="10.2053" y="65.386"><feFlood flood-opacity="0" result="BackgroundImageFix"/><feGaussianBlur in="BackgroundImage" stdDeviation="15.5189"/><feComposite in2="SourceAlpha" operator="in" result="effect1_backgroundBlur_40_647"/><feBlend in="SourceGraphic" in2="effect1_backgroundBlur_40_647" mode="normal" result="shape"/></filter><linearGradient id="f"><stop offset=".416176" stop-color="#fff" stop-opacity=".7"/><stop offset="1" stop-color="#fff" stop-opacity="0"/></linearGradient><linearGradient id="g" gradientUnits="userSpaceOnUse" x1="78.7989" x2="247.024" xlink:href="#f" y1="57.9364" y2="177.742"/><linearGradient id="h"><stop offset="0" stop-color="#fff"/><stop offset="1" stop-color="#fff" stop-opacity="0"/></linearGradient><linearGradient id="i" gradientUnits="userSpaceOnUse" x1="23.0846" x2="107.987" xlink:href="#h" y1="70.7625" y2="131.83"/><linearGradient id="j" gradientUnits="userSpaceOnUse" x1="68.8483" x2="192.501" xlink:href="#f" y1="115.131" y2="203.194"/><linearGradient id="k" gradientUnits="userSpaceOnUse" x1="27.8959" x2="90.3029" xlink:href="#h" y1="124.559" y2="169.446"/><path d="m278.372 137.957c0 21.973-17.845 39.785-39.866 39.785h-144.2562c-29.2727 0-53.0066-23.682-53.0066-52.907 0-29.217 23.7339-52.9078 53.0066-52.9078 2.6253 0 5.2058.2011 7.7362.5671 11.97-23.7271 36.589-40.0089 65.027-40.0089 34.412 0 63.239 23.8472 70.813 55.8857.756 3.1988 1.301 6.4758 1.615 9.8143v.0084c21.579.4917 38.931 18.1032 38.931 39.7632z" fill="#bac7cb" fill-opacity=".4"/><g filter="url(#a)"><path d="m278.372 137.957c0 21.973-17.845 39.785-39.866 39.785h-144.2562c-29.2727 0-53.0066-23.682-53.0066-52.907 0-29.217 23.7339-52.9078 53.0066-52.9078 2.6253 0 5.2058.2011 7.7362.5671 11.97-23.7271 36.589-40.0089 65.027-40.0089 34.412 0 63.239 23.8472 70.813 55.8857.756 3.1988 1.301 6.4758 1.615 9.8143v.0084c21.579.4917 38.931 18.1032 38.931 39.7632z" fill="url(#g)"/></g><g filter="url(#b)"><path clip-rule="evenodd" d="m102.692 73.8509-.884-.1279c-2.4755-.358-4.9965-.5543-7.5582-.5543-28.5892 0-51.7651 23.1371-51.7651 51.6663 0 28.537 23.1757 51.666 51.7651 51.666h144.2562c21.338 0 38.625-17.259 38.625-38.544 0-20.981-16.81-38.0456-37.719-38.522l-1.213-.0277v-1.1635c-.309-3.2602-.843-6.4613-1.581-9.5871-7.444-31.4897-35.781-54.9298-69.605-54.9298-27.953 0-52.152 16.0023-63.919 39.3266zm136.749 24.3345v.0084c21.579.4917 38.931 18.1032 38.931 39.7632 0 21.973-17.845 39.785-39.866 39.785h-144.2562c-29.2727 0-53.0066-23.682-53.0066-52.907 0-29.217 23.7339-52.9078 53.0066-52.9078 2.6253 0 5.2058.2011 7.7362.5671 11.97-23.7271 36.589-40.0089 65.027-40.0089 34.412 0 63.239 23.8472 70.813 55.8857.755 3.1988 1.301 6.4758 1.615 9.8143z" fill="url(#i)" fill-rule="evenodd"/></g><g filter="url(#c)"><path d="m200.157 167.19c0 31.54-28.765 57.109-64.249 57.109-35.483 0-64.2478-25.569-64.2478-57.109 0-31.541 28.7648-57.11 64.2478-57.11 35.484 0 64.249 25.569 64.249 57.11z" fill="#bac7cb" fill-opacity=".2"/></g><path d="m215.543 173.95c0 16.151-13.117 29.244-29.303 29.244h-106.0347c-21.5167 0-38.9621-17.408-38.9621-38.889 0-21.476 17.4454-38.89 38.9621-38.89 1.9297 0 3.8265.148 5.6862.417 8.7988-17.44 26.8945-29.4082 47.7985-29.4082 25.293 0 46.483 17.5292 52.05 41.0782.555 2.351.956 4.76 1.187 7.214v.006c15.861.362 28.616 13.307 28.616 29.228z" fill="#bac7cb"/><g filter="url(#d)"><path d="m215.543 173.95c0 16.151-13.117 29.244-29.303 29.244h-106.0347c-21.5167 0-38.9621-17.408-38.9621-38.889 0-21.476 17.4454-38.89 38.9621-38.89 1.9297 0 3.8265.148 5.6862.417 8.7988-17.44 26.8945-29.4082 47.7985-29.4082 25.293 0 46.483 17.5292 52.05 41.0782.555 2.351.956 4.76 1.187 7.214v.006c15.861.362 28.616 13.307 28.616 29.228z" fill="url(#j)"/></g><g filter="url(#e)"><path clip-rule="evenodd" d="m86.5977 127.189-.8839-.128c-1.8051-.261-3.6424-.404-5.5085-.404-20.8332 0-37.7206 16.86-37.7206 37.648 0 20.793 16.8873 37.647 37.7206 37.647h106.0347c15.503 0 28.062-12.539 28.062-28.002 0-15.242-12.212-27.64-27.403-27.986l-1.214-.028v-1.161c-.225-2.376-.615-4.709-1.153-6.987-5.438-23.001-26.136-40.1227-50.842-40.1227-20.418 0-38.0944 11.6887-46.69 28.7257zm100.3293 17.527v.006c15.861.362 28.616 13.307 28.616 29.228 0 16.151-13.117 29.244-29.303 29.244h-106.0347c-21.5167 0-38.9621-17.408-38.9621-38.889 0-21.476 17.4454-38.89 38.9621-38.89 1.9297 0 3.8265.148 5.6862.417 8.7988-17.44 26.8945-29.4082 47.7985-29.4082 25.293 0 46.483 17.5292 52.05 41.0782.555 2.351.956 4.76 1.187 7.214z" fill="url(#k)" fill-rule="evenodd"/></g><g fill="#00a3ff"><path d="m160.034 219.333c-7.926 4.589-13.263 13.153-13.263 22.969 0 .351.005.7.02 1.046.648 16.674 25.837 16.674 26.485 0 .015-.346.02-.695.02-1.046.002-9.816-5.337-18.38-13.262-22.969z"/><path d="m109.134 182.709c-7.926 4.588-13.2649 13.153-13.2649 22.969 0 .351.0073.7.0218 1.048.6462 16.672 25.8371 16.672 26.4851 0 .013-.348.02-.697.02-1.048 0-9.816-5.336-18.381-13.262-22.969z"/><path d="m217.956 194.503c-7.925 4.588-13.262 13.153-13.262 22.969 0 .351.008.699.02 1.048.648 16.672 25.837 16.672 26.485 0 .015-.349.02-.697.02-1.048.002-9.816-5.334-18.381-13.263-22.969z"/></g></svg>