<svg fill="none" height="319" viewBox="0 0 319 319" width="319" xmlns="http://www.w3.org/2000/svg" xmlns:xlink="http://www.w3.org/1999/xlink"><filter id="a" color-interpolation-filters="sRGB" filterUnits="userSpaceOnUse" height="207.332" width="299.205" x="10.2893" y="-5.10423"><feFlood flood-opacity="0" result="BackgroundImageFix"/><feGaussianBlur in="BackgroundImage" stdDeviation="15.5189"/><feComposite in2="SourceAlpha" operator="in" result="effect1_backgroundBlur_40_785"/><feBlend in="SourceGraphic" in2="effect1_backgroundBlur_40_785" mode="normal" result="shape"/></filter><filter id="b" color-interpolation-filters="sRGB" filterUnits="userSpaceOnUse" height="207.332" width="299.205" x="10.2893" y="-5.10423"><feFlood flood-opacity="0" result="BackgroundImageFix"/><feGaussianBlur in="BackgroundImage" stdDeviation="15.5189"/><feComposite in2="SourceAlpha" operator="in" result="effect1_backgroundBlur_40_785"/><feBlend in="SourceGraphic" in2="effect1_backgroundBlur_40_785" mode="normal" result="shape"/></filter><filter id="c" color-interpolation-filters="sRGB" filterUnits="userSpaceOnUse" height="144.015" width="158.293" x="56.847" y="94.8372"><feFlood flood-opacity="0" result="BackgroundImageFix"/><feBlend in="SourceGraphic" in2="BackgroundImageFix" mode="normal" result="shape"/><feGaussianBlur result="effect1_foregroundBlur_40_785" stdDeviation="7.44908"/></filter><filter id="d" color-interpolation-filters="sRGB" filterUnits="userSpaceOnUse" height="168.846" width="236.375" x="10.2893" y="58.8333"><feFlood flood-opacity="0" result="BackgroundImageFix"/><feGaussianBlur in="BackgroundImage" stdDeviation="15.5189"/><feComposite in2="SourceAlpha" operator="in" result="effect1_backgroundBlur_40_785"/><feBlend in="SourceGraphic" in2="effect1_backgroundBlur_40_785" mode="normal" result="shape"/></filter><filter id="e" color-interpolation-filters="sRGB" filterUnits="userSpaceOnUse" height="168.846" width="236.375" x="10.2893" y="58.8333"><feFlood flood-opacity="0" result="BackgroundImageFix"/><feGaussianBlur in="BackgroundImage" stdDeviation="15.5189"/><feComposite in2="SourceAlpha" operator="in" result="effect1_backgroundBlur_40_785"/><feBlend in="SourceGraphic" in2="effect1_backgroundBlur_40_785" mode="normal" result="shape"/></filter><linearGradient id="f"><stop offset=".416176" stop-color="#fff" stop-opacity=".7"/><stop offset="1" stop-color="#fff" stop-opacity="0"/></linearGradient><linearGradient id="g" gradientUnits="userSpaceOnUse" x1="78.8829" x2="247.108" xlink:href="#f" y1="51.3846" y2="171.191"/><linearGradient id="h"><stop offset="0" stop-color="#fff"/><stop offset="1" stop-color="#fff" stop-opacity="0"/></linearGradient><linearGradient id="i" gradientUnits="userSpaceOnUse" x1="23.1686" x2="108.071" xlink:href="#h" y1="64.2108" y2="125.278"/><linearGradient id="j" gradientUnits="userSpaceOnUse" x1="68.9322" x2="192.585" xlink:href="#f" y1="108.579" y2="196.641"/><linearGradient id="k" gradientUnits="userSpaceOnUse" x1="27.9799" x2="90.3868" xlink:href="#h" y1="118.006" y2="162.893"/><path d="m278.456 131.405c0 21.973-17.845 39.786-39.866 39.786h-144.2562c-29.2728 0-53.0067-23.683-53.0067-52.908 0-29.2168 23.7339-52.9076 53.0067-52.9076 2.6252 0 5.2058.2012 7.7362.5672 11.97-23.7272 36.588-40.009 65.027-40.009 34.412 0 63.239 23.8472 70.813 55.8857.755 3.1988 1.301 6.4759 1.615 9.8144v.0083c21.579.4917 38.931 18.103 38.931 39.763z" fill="#bac7cb" fill-opacity=".4"/><g filter="url(#a)"><path d="m278.456 131.405c0 21.973-17.845 39.786-39.866 39.786h-144.2562c-29.2728 0-53.0067-23.683-53.0067-52.908 0-29.2168 23.7339-52.9076 53.0067-52.9076 2.6252 0 5.2058.2012 7.7362.5672 11.97-23.7272 36.588-40.009 65.027-40.009 34.412 0 63.239 23.8472 70.813 55.8857.755 3.1988 1.301 6.4759 1.615 9.8144v.0083c21.579.4917 38.931 18.103 38.931 39.763z" fill="url(#g)"/></g><g filter="url(#b)"><path clip-rule="evenodd" d="m102.776 67.2991-.884-.1278c-2.4755-.3581-4.9965-.5544-7.5582-.5544-28.5893 0-51.7651 23.1372-51.7651 51.6661 0 28.537 23.1757 51.666 51.7651 51.666h144.2562c21.338 0 38.625-17.259 38.625-38.544 0-20.981-16.81-38.0453-37.719-38.5218l-1.213-.0276v-1.1635c-.309-3.2603-.843-6.4613-1.581-9.5872-7.444-31.4896-35.781-54.9298-69.605-54.9298-27.953 0-52.152 16.0024-63.919 39.3267zm136.749 24.3346v.0083c21.579.4917 38.931 18.103 38.931 39.763 0 21.973-17.845 39.786-39.866 39.786h-144.2562c-29.2728 0-53.0067-23.683-53.0067-52.908 0-29.2168 23.7339-52.9076 53.0067-52.9076 2.6252 0 5.2058.2012 7.7362.5672 11.97-23.7272 36.588-40.009 65.027-40.009 34.412 0 63.239 23.8472 70.813 55.8857.755 3.1988 1.301 6.4759 1.615 9.8144z" fill="url(#i)" fill-rule="evenodd"/></g><g filter="url(#c)"><path d="m200.242 166.845c0 31.541-28.765 57.11-64.249 57.11-35.483 0-64.2479-25.569-64.2479-57.11s28.7649-57.11 64.2479-57.11c35.484 0 64.249 25.569 64.249 57.11z" fill="#bac7cb" fill-opacity=".2"/></g><path d="m215.627 167.397c0 16.151-13.117 29.244-29.303 29.244h-106.0347c-21.5167 0-38.9622-17.407-38.9622-38.889 0-21.476 17.4455-38.889 38.9622-38.889 1.9297 0 3.8265.147 5.6862.416 8.7988-17.44 26.8945-29.4079 47.7975-29.4079 25.294 0 46.484 17.5289 52.051 41.0779.555 2.352.956 4.761 1.187 7.214v.007c15.861.361 28.616 13.306 28.616 29.227z" fill="#bac7cb"/><g filter="url(#d)"><path d="m215.627 167.397c0 16.151-13.117 29.244-29.303 29.244h-106.0347c-21.5167 0-38.9622-17.407-38.9622-38.889 0-21.476 17.4455-38.889 38.9622-38.889 1.9297 0 3.8265.147 5.6862.416 8.7988-17.44 26.8945-29.4079 47.7975-29.4079 25.294 0 46.484 17.5289 52.051 41.0779.555 2.352.956 4.761 1.187 7.214v.007c15.861.361 28.616 13.306 28.616 29.227z" fill="url(#j)"/></g><g filter="url(#e)"><path clip-rule="evenodd" d="m86.6817 120.636-.8839-.128c-1.8051-.261-3.6424-.404-5.5085-.404-20.8332 0-37.7206 16.86-37.7206 37.648 0 20.794 16.8872 37.648 37.7206 37.648h106.0347c15.503 0 28.062-12.54 28.062-28.003 0-15.242-12.212-27.64-27.403-27.986l-1.214-.028v-1.161c-.225-2.376-.615-4.709-1.153-6.987-5.438-23.001-26.136-40.1224-50.843-40.1224-20.417 0-38.0934 11.6884-46.6891 28.7264zm100.3293 17.527v.007c15.861.361 28.616 13.306 28.616 29.227 0 16.151-13.117 29.244-29.303 29.244h-106.0347c-21.5167 0-38.9622-17.407-38.9622-38.889 0-21.476 17.4455-38.889 38.9622-38.889 1.9297 0 3.8265.147 5.6862.416 8.7988-17.44 26.8945-29.4079 47.7975-29.4079 25.294 0 46.484 17.5289 52.051 41.0779.555 2.352.956 4.761 1.187 7.214z" fill="url(#k)" fill-rule="evenodd"/></g><g fill="#00a3ff"><path d="m91.0289 225.097c-3.7341 2.16-6.2486 6.196-6.2486 10.821 0 .166.0034.329.0091.493.3058 7.855 12.1732 7.855 12.4778 0 .0068-.164.0103-.327.0103-.493 0-4.625-2.5146-8.661-6.2486-10.821z"/><path d="m118.419 236.781c-3.736 2.161-6.249 6.196-6.249 10.821 0 .166.003.33.009.494.305 7.855 12.173 7.855 12.478 0 .007-.164.009-.328.009-.494.001-4.625-2.513-8.66-6.247-10.821z"/><path d="m118.419 204.713c-3.736 2.161-6.249 6.196-6.249 10.821 0 .165.003.33.009.492.305 7.856 12.173 7.856 12.478 0 .007-.162.009-.327.009-.492.001-4.625-2.513-8.66-6.247-10.821z"/><path d="m145.807 225.097c-3.734 2.16-6.248 6.196-6.248 10.821 0 .166.003.329.009.493.305 7.855 12.173 7.855 12.477 0 .007-.164.011-.327.011-.493 0-4.625-2.515-8.661-6.249-10.821z"/><path d="m173.197 236.781c-3.734 2.161-6.249 6.196-6.249 10.821 0 .166.003.33.009.494.305 7.855 12.174 7.855 12.478 0 .007-.164.009-.328.009-.494.001-4.625-2.513-8.66-6.247-10.821z"/><path d="m228.134 236.781c-3.734 2.161-6.248 6.196-6.248 10.821 0 .166.003.33.009.494.306 7.855 12.173 7.855 12.478 0 .007-.164.01-.328.01-.494 0-4.625-2.515-8.66-6.249-10.821z"/><path d="m200.586 225.097c-3.734 2.16-6.248 6.196-6.248 10.821 0 .166.003.329.009.493.306 7.855 12.173 7.855 12.478 0 .007-.164.01-.327.01-.493 0-4.625-2.514-8.661-6.249-10.821z"/></g></svg>