<svg fill="none" height="319" viewBox="0 0 319 319" width="319" xmlns="http://www.w3.org/2000/svg" xmlns:xlink="http://www.w3.org/1999/xlink"><filter id="a" color-interpolation-filters="sRGB" filterUnits="userSpaceOnUse" height="207.332" width="299.205" x="10.2464" y="19.7258"><feFlood flood-opacity="0" result="BackgroundImageFix"/><feGaussianBlur in="BackgroundImage" stdDeviation="15.5189"/><feComposite in2="SourceAlpha" operator="in" result="effect1_backgroundBlur_40_751"/><feBlend in="SourceGraphic" in2="effect1_backgroundBlur_40_751" mode="normal" result="shape"/></filter><filter id="b" color-interpolation-filters="sRGB" filterUnits="userSpaceOnUse" height="207.332" width="299.205" x="10.2464" y="19.7258"><feFlood flood-opacity="0" result="BackgroundImageFix"/><feGaussianBlur in="BackgroundImage" stdDeviation="15.5189"/><feComposite in2="SourceAlpha" operator="in" result="effect1_backgroundBlur_40_751"/><feBlend in="SourceGraphic" in2="effect1_backgroundBlur_40_751" mode="normal" result="shape"/></filter><linearGradient id="c" gradientUnits="userSpaceOnUse" x1="78.8399" x2="247.065" y1="76.2147" y2="196.021"><stop offset=".416176" stop-color="#fff" stop-opacity=".7"/><stop offset="1" stop-color="#fff" stop-opacity="0"/></linearGradient><linearGradient id="d" gradientUnits="userSpaceOnUse" x1="23.1257" x2="108.028" y1="89.0409" y2="150.108"><stop offset="0" stop-color="#fff"/><stop offset="1" stop-color="#fff" stop-opacity="0"/></linearGradient><g fill="#9db7bf"><path d="m111.101 212.161c-.679-1.165-2.18-1.563-3.354-.892l-5.035 2.883v-5.764c0-1.345-1.1-2.435-2.456-2.435-1.3553 0-2.4551 1.09-2.4551 2.435v5.764l-5.035-2.883c-1.1743-.672-2.6754-.273-3.3538.892-.6773 1.165-.2759 2.653.8984 3.326l5.035 2.881-5.035 2.882c-1.1743.673-1.5757 2.161-.8984 3.325.4548.781 1.2799 1.219 2.1286 1.219.4162 0 .8387-.106 1.2252-.327l5.035-2.883v5.765c0 1.344 1.0998 2.434 2.4551 2.434 1.356 0 2.456-1.09 2.456-2.434v-5.765l5.035 2.883c.386.221.809.327 1.225.327.849 0 1.674-.438 2.129-1.219.678-1.164.275-2.652-.899-3.325l-5.035-2.882 5.035-2.881c1.174-.673 1.577-2.161.899-3.326z"/><path d="m229.387 221.25-5.035-2.882 5.035-2.881c1.174-.673 1.577-2.161.898-3.326-.678-1.165-2.179-1.563-3.354-.892l-5.035 2.883v-5.764c0-1.345-1.099-2.435-2.455-2.435s-2.455 1.09-2.455 2.435v5.764l-5.036-2.883c-1.174-.672-2.675-.273-3.353.892s-.276 2.653.898 3.326l5.035 2.881-5.035 2.882c-1.174.673-1.576 2.161-.898 3.325.454.781 1.28 1.219 2.128 1.219.417 0 .839-.106 1.225-.327l5.036-2.883v5.765c0 1.344 1.099 2.434 2.455 2.434s2.455-1.09 2.455-2.434v-5.765l5.035 2.883c.387.221.809.327 1.226.327.848 0 1.673-.438 2.128-1.219.679-1.164.276-2.652-.898-3.325z"/><path d="m170.693 212.161c-.678-1.164-2.179-1.563-3.353-.892l-5.035 2.883v-5.764c0-1.345-1.1-2.435-2.456-2.435-1.355 0-2.455 1.09-2.455 2.435v5.764l-5.035-2.883c-1.174-.671-2.675-.272-3.354.892-.678 1.165-.275 2.653.899 3.326l5.035 2.881-5.035 2.882c-1.174.673-1.577 2.161-.899 3.325.455.781 1.28 1.219 2.129 1.219.416 0 .839-.106 1.225-.327l5.035-2.883v5.765c0 1.344 1.1 2.434 2.455 2.434 1.356 0 2.456-1.09 2.456-2.434v-5.764l5.035 2.882c.386.222.809.327 1.225.327.849 0 1.674-.438 2.128-1.218.678-1.164.276-2.653-.898-3.325l-5.035-2.883 5.035-2.881c1.174-.673 1.577-2.161.898-3.326z"/><path d="m123.598 242.889c-.509-.875-1.634-1.173-2.515-.669l-3.776 2.162v-4.324c0-1.008-.825-1.826-1.842-1.826s-1.842.818-1.842 1.826v4.324l-3.776-2.162c-.881-.505-2.006-.206-2.515.669-.508.873-.207 1.989.674 2.493l3.776 2.162-3.776 2.161c-.881.505-1.182 1.621-.674 2.494.341.586.96.914 1.596.914.312 0 .629-.08.919-.245l3.776-2.162v4.323c0 1.008.825 1.826 1.842 1.826s1.842-.818 1.842-1.826v-4.323l3.776 2.162c.29.165.607.245.919.245.636 0 1.255-.328 1.596-.914.509-.873.207-1.989-.674-2.494l-3.776-2.161 3.776-2.162c.881-.504 1.183-1.62.674-2.493z"/><path d="m212.313 249.705-3.776-2.161 3.776-2.162c.881-.504 1.183-1.62.674-2.493-.509-.875-1.635-1.173-2.516-.669l-3.776 2.162v-4.324c0-1.008-.825-1.826-1.841-1.826-1.017 0-1.842.818-1.842 1.826v4.324l-3.776-2.162c-.881-.505-2.007-.206-2.516.669-.507.873-.206 1.989.674 2.493l3.777 2.162-3.777 2.161c-.88.505-1.181 1.621-.674 2.494.342.586.96.914 1.597.914.312 0 .629-.08.919-.245l3.776-2.162v4.323c0 1.008.825 1.826 1.842 1.826 1.016 0 1.841-.818 1.841-1.826v-4.323l3.776 2.162c.29.165.607.245.919.245.637 0 1.256-.328 1.597-.914.509-.873.207-1.989-.674-2.494z"/><path d="m168.293 242.889c-.509-.874-1.635-1.173-2.516-.669l-3.776 2.162v-4.324c0-1.008-.825-1.826-1.841-1.826-1.017 0-1.842.818-1.842 1.826v4.324l-3.776-2.162c-.881-.504-2.007-.205-2.515.669-.509.873-.207 1.989.673 2.493l3.776 2.162-3.776 2.161c-.88.505-1.182 1.621-.673 2.494.341.586.959.914 1.596.914.312 0 .629-.08.919-.245l3.776-2.162v4.323c0 1.008.825 1.826 1.842 1.826 1.016 0 1.841-.818 1.841-1.826v-4.322l3.776 2.161c.29.166.607.245.919.245.637 0 1.255-.328 1.597-.913.507-.873.206-1.99-.674-2.494l-3.776-2.162 3.776-2.162c.88-.504 1.182-1.62.674-2.493z"/></g><path d="m278.413 156.235c0 21.973-17.845 39.786-39.866 39.786h-144.2562c-29.2727 0-53.0066-23.683-53.0066-52.908 0-29.217 23.7339-52.9075 53.0066-52.9075 2.6253 0 5.2058.2012 7.7362.5671 11.97-23.7271 36.589-40.0089 65.027-40.0089 34.412 0 63.239 23.8472 70.813 55.8853.756 3.199 1.301 6.476 1.615 9.815v.008c21.579.492 38.931 18.103 38.931 39.763z" fill="#bac7cb" fill-opacity=".4"/><g filter="url(#a)"><path d="m278.413 156.235c0 21.973-17.845 39.786-39.866 39.786h-144.2562c-29.2727 0-53.0066-23.683-53.0066-52.908 0-29.217 23.7339-52.9075 53.0066-52.9075 2.6253 0 5.2058.2012 7.7362.5671 11.97-23.7271 36.589-40.0089 65.027-40.0089 34.412 0 63.239 23.8472 70.813 55.8853.756 3.199 1.301 6.476 1.615 9.815v.008c21.579.492 38.931 18.103 38.931 39.763z" fill="url(#c)"/></g><g filter="url(#b)"><path clip-rule="evenodd" d="m102.733 92.1292-.884-.1278c-2.4755-.3581-4.9965-.5544-7.5582-.5544-28.5892 0-51.7651 23.137-51.7651 51.666 0 28.537 23.1757 51.666 51.7651 51.666h144.2562c21.338 0 38.625-17.259 38.625-38.544 0-20.981-16.81-38.045-37.719-38.522l-1.213-.027v-1.164c-.309-3.26-.843-6.461-1.581-9.587-7.444-31.4897-35.781-54.9298-69.605-54.9298-27.953 0-52.152 16.0023-63.919 39.3266zm136.749 24.3348v.008c21.579.492 38.931 18.103 38.931 39.763 0 21.973-17.845 39.786-39.866 39.786h-144.2562c-29.2727 0-53.0066-23.683-53.0066-52.908 0-29.217 23.7339-52.9075 53.0066-52.9075 2.6253 0 5.2058.2012 7.7362.5671 11.97-23.7271 36.589-40.0089 65.027-40.0089 34.412 0 63.239 23.8472 70.813 55.8853.756 3.199 1.301 6.476 1.615 9.815z" fill="url(#d)" fill-rule="evenodd"/></g></svg>