<svg width="19" height="19" viewBox="0 0 19 19" fill="none" xmlns="http://www.w3.org/2000/svg">
<path d="M7.88071 13.9051H1.85429V12.0508H7.88071C8.47292 12.0511 9.05379 12.2133 9.56036 12.5201C10.0669 12.8268 10.4799 13.2663 10.7545 13.791C11.0292 14.3157 11.155 14.9055 11.1183 15.4966C11.0817 16.0877 10.884 16.6575 10.5467 17.1442C10.2093 17.631 9.74525 18.0161 9.20467 18.258C8.66409 18.4998 8.06763 18.5891 7.47993 18.5161C6.89223 18.4432 6.33569 18.2108 5.87061 17.8442C5.40554 17.4776 5.04966 16.9907 4.84154 16.4362L6.57808 15.7844C6.66725 16.0221 6.81975 16.2308 7.01905 16.3879C7.21836 16.5451 7.45687 16.6447 7.70874 16.676C7.96061 16.7072 8.21624 16.669 8.44793 16.5654C8.67962 16.4617 8.87854 16.2967 9.02312 16.0881C9.16771 15.8795 9.25246 15.6353 9.26818 15.382C9.2839 15.1287 9.23 14.8759 9.11232 14.651C8.99463 14.4261 8.81766 14.2377 8.60056 14.1063C8.38346 13.9748 8.13452 13.9052 7.88071 13.9051ZM2.78143 8.34227H15.2979C15.8901 8.34248 16.4709 8.50475 16.9775 8.8115C17.4841 9.11824 17.8971 9.55777 18.1717 10.0825C18.4463 10.6071 18.5721 11.197 18.5355 11.788C18.4988 12.3791 18.3011 12.9489 17.9638 13.4356C17.6265 13.9224 17.1624 14.3076 16.6218 14.5494C16.0812 14.7912 15.4848 14.8805 14.8971 14.8076C14.3094 14.7346 13.7528 14.5023 13.2878 14.1356C12.8227 13.769 12.4668 13.2821 12.2587 12.7277L13.9952 12.0759C14.0844 12.3135 14.2369 12.5222 14.4362 12.6793C14.6355 12.8365 14.874 12.9361 15.1259 12.9674C15.3778 12.9987 15.6334 12.9604 15.8651 12.8568C16.0968 12.7532 16.2957 12.5881 16.4403 12.3795C16.5849 12.1709 16.6696 11.9267 16.6853 11.6734C16.701 11.4201 16.6471 11.1673 16.5295 10.9424C16.4118 10.7176 16.2348 10.5292 16.0177 10.3977C15.8006 10.2662 15.5517 10.1967 15.2979 10.1966H2.78143C2.04375 10.1966 1.33628 9.90352 0.814662 9.3819C0.293043 8.86028 0 8.15281 0 7.41513C0 6.67745 0.293043 5.96998 0.814662 5.44836C1.33628 4.92674 2.04375 4.6337 2.78143 4.6337H10.6621C10.9159 4.6336 11.1649 4.56403 11.382 4.43256C11.5991 4.30108 11.7761 4.1127 11.8937 3.88782C12.0114 3.66295 12.0653 3.41016 12.0496 3.15684C12.0339 2.90352 11.9491 2.65933 11.8046 2.45073C11.66 2.24214 11.4611 2.07709 11.2294 1.97346C10.9977 1.86984 10.742 1.83159 10.4902 1.86287C10.2383 1.89415 9.99979 1.99377 9.80048 2.15091C9.60118 2.30806 9.44868 2.51676 9.35951 2.75438L7.62297 2.10353C7.89042 1.39223 8.39896 0.797314 9.05999 0.422442C9.72101 0.04757 10.4926 -0.0834948 11.2403 0.0520847C11.9881 0.187664 12.6645 0.581293 13.1518 1.16438C13.6392 1.74748 13.9065 2.48307 13.9071 3.24299C13.9071 4.10361 13.5653 4.92899 12.9567 5.53755C12.3481 6.1461 11.5228 6.48799 10.6621 6.48799H2.78143C2.53553 6.48799 2.29971 6.58567 2.12584 6.75954C1.95197 6.93341 1.85429 7.16924 1.85429 7.41513C1.85429 7.66102 1.95197 7.89684 2.12584 8.07072C2.29971 8.24459 2.53553 8.34227 2.78143 8.34227Z" fill="white"/>
</svg>
