<svg width="17" height="21" viewBox="0 0 17 21" fill="none" xmlns="http://www.w3.org/2000/svg">
<path d="M8.34429 2.62196L3.75493 7.21132C2.84736 8.11899 2.22931 9.27539 1.97894 10.5343C1.72858 11.7932 1.85714 13.0981 2.34837 14.284C2.83961 15.4698 3.67145 16.4834 4.73871 17.1965C5.80597 17.9096 7.06072 18.2902 8.34429 18.2902C9.62786 18.2902 10.8826 17.9096 11.9499 17.1965C13.0171 16.4834 13.849 15.4698 14.3402 14.284C14.8314 13.0981 14.96 11.7932 14.7096 10.5343C14.4593 9.27539 13.8412 8.11899 12.9336 7.21132L8.34429 2.62196ZM8.34429 0L14.2446 5.90034C15.4116 7.06731 16.2063 8.55412 16.5282 10.1728C16.8502 11.7914 16.685 13.4691 16.0534 14.9938C15.4218 16.5186 14.3523 17.8218 12.9801 18.7386C11.6079 19.6555 9.99463 20.1449 8.34429 20.1449C6.69395 20.1449 5.08067 19.6555 3.70846 18.7386C2.33625 17.8218 1.26675 16.5186 0.635184 14.9938C0.0036222 13.4691 -0.161628 11.7914 0.160329 10.1728C0.482287 8.55412 1.27699 7.06731 2.44395 5.90034L8.34429 0Z" fill="white"/>
</svg>
